<?xml version="1.0" encoding="UTF-8" standalone="no"?>
<!-- Generator: Adobe Illustrator 15.0.0, SVG Export Plug-In . SVG Version: 6.00 Build 0)  -->

<svg
   xmlns:dc="http://purl.org/dc/elements/1.1/"
   xmlns:cc="http://creativecommons.org/ns#"
   xmlns:rdf="http://www.w3.org/1999/02/22-rdf-syntax-ns#"
   xmlns:svg="http://www.w3.org/2000/svg"
   xmlns="http://www.w3.org/2000/svg"
   xmlns:sodipodi="http://sodipodi.sourceforge.net/DTD/sodipodi-0.dtd"
   xmlns:inkscape="http://www.inkscape.org/namespaces/inkscape"
   version="1.1"
   id="Calque_1"
   x="0px"
   y="0px"
   width="140.54px"
   height="135.811px"
   viewBox="0 0 140.54 135.811"
   enable-background="new 0 0 140.54 135.811"
   xml:space="preserve"
   inkscape:version="0.48.2 r9819"
   sodipodi:docname="LOGO THSF.svg"><metadata
   id="metadata2998"><rdf:RDF><cc:Work
       rdf:about=""><dc:format>image/svg+xml</dc:format><dc:type
         rdf:resource="http://purl.org/dc/dcmitype/StillImage" /></cc:Work></rdf:RDF></metadata><defs
   id="defs2996" /><sodipodi:namedview
   pagecolor="#ffffff"
   bordercolor="#666666"
   borderopacity="1"
   objecttolerance="10"
   gridtolerance="10"
   guidetolerance="10"
   inkscape:pageopacity="0"
   inkscape:pageshadow="2"
   inkscape:window-width="640"
   inkscape:window-height="480"
   id="namedview2994"
   showgrid="false"
   inkscape:zoom="1.737709"
   inkscape:cx="70.269997"
   inkscape:cy="67.905502"
   inkscape:window-x="0"
   inkscape:window-y="0"
   inkscape:window-maximized="0"
   inkscape:current-layer="Calque_1" />



<g
   id="g3019"
   transform="translate(-5.4811149,3.4528223)"><path
     id="path2986"
     d="m 85.389,19.665 v 12.103 c 0,1.849 -1.504,3.353 -3.354,3.353 -1.848,0 -3.352,-1.504 -3.352,-3.353 V 19.665 h 6.706 z"
     inkscape:connector-curvature="0" /><path
     id="path2988"
     d="m 74.682,19.665 v 12.103 c 0,4.054 3.299,7.353 7.354,7.353 4.054,0 7.354,-3.299 7.354,-7.353 V 19.665 h 7.354 v 22.057 c 0,3.778 -3.075,6.852 -6.853,6.852 H 54.01 c -3.778,0 -6.853,-3.074 -6.853,-6.852 V 19.665 h 27.525 z"
     inkscape:connector-curvature="0" /><path
     id="path2990"
     d="M 47.156,111.154 V 78.617 c 0,-3.777 3.074,-6.854 6.854,-6.854 h 45.784 c 3.778,0 6.851,3.076 6.851,6.854 v 32.537 H 47.156 z"
     inkscape:connector-curvature="0" /><path
     id="path2992"
     d="M 122.646,111.154 H 110.645 V 78.617 c 0,-5.984 -4.868,-10.854 -10.853,-10.854 H 54.01 c -5.984,0 -10.853,4.869 -10.853,10.854 v 32.537 H 31.156 V 19.666 h 12.001 v 22.056 c 0,5.984 4.868,10.852 10.853,10.852 h 35.881 c 5.984,0 10.853,-4.868 10.853,-10.852 V 19.666 h 0.864 l 21.039,21.039 v 70.449 z"
     inkscape:connector-curvature="0" /></g>
</svg>